# xmcd CD database file
#
# Track frame offsets:
#	150
#	18012
#	49780
#	86267
#	107062
#	132900
#	160572
#	178895
#	222960
#	245190
#	287290
#
# Disc length: 4335 seconds
#
# Revision: 0
# Processed by: cddbd v1.4PL0 Copyright (c) Steve Scherf et al.
# Submitted via: CDex 1.40Release
#
DISCID=8c10ed0b
DTITLE=Blues Traveler - What You And I Have Been Through
DYEAR=2002
DGENRE=Blues
TTITLE0=Star Spangled Banner
TTITLE1=Slow Change
TTITLE2=Reach Me
TTITLE3=Sadly A Fiction
TTITLE4=Carolina Blues
TTITLE5=Pattern
TTITLE6=Back In The Day
TTITLE7=Rage (With Carl Young)
TTITLE8=Lost Me There
TTITLE9=All Hands
TTITLE10=The Path (With Radioactive)
EXTD=YEAR: 2002 ID3G: 0
EXTT0=
EXTT1=
EXTT2=
EXTT3=
EXTT4=
EXTT5=
EXTT6=
EXTT7=
EXTT8=
EXTT9=
EXTT10=
PLAYORDER=
